<svg width="17" height="20" viewBox="0 0 17 20" fill="none" xmlns="http://www.w3.org/2000/svg">
<path d="M3.05082 19.9994H16.1865C16.2663 19.9994 16.3428 19.9706 16.3992 19.9193C16.4556 19.868 16.4873 19.7985 16.4873 19.7259V2.78906C16.4873 2.71654 16.4556 2.64699 16.3992 2.59571C16.3428 2.54443 16.2663 2.51562 16.1865 2.51562H14.6839V18.3599H2.75L2.75004 19.7259C2.75004 19.7985 2.78173 19.868 2.83814 19.9193C2.89455 19.9706 2.97105 19.9994 3.05082 19.9994Z" fill="#EAF6FF"/>
<path d="M1.375 17.1283V18.4759C1.375 18.5484 1.40669 18.618 1.4631 18.6692C1.5195 18.7205 1.59601 18.7493 1.67578 18.7493H14.8115C14.8912 18.7493 14.9677 18.7205 15.0241 18.6692C15.0806 18.618 15.1122 18.5484 15.1122 18.4759V1.53906C15.1122 1.46654 15.0806 1.39699 15.0241 1.34571C14.9677 1.29443 14.8912 1.26562 14.8115 1.26562H11.9351L13.3114 2.47758V17.1283H1.375Z" fill="#9BD8F9"/>
<path d="M13.4417 17.5206H0.300781C0.261282 17.5206 0.22217 17.5136 0.185677 17.4998C0.149185 17.4861 0.116027 17.4659 0.0880966 17.4405C0.0601664 17.4151 0.038011 17.385 0.0228953 17.3518C0.00777966 17.3187 0 17.2831 0 17.2472V0.273438C0 0.200917 0.0316891 0.131367 0.0880966 0.080088C0.144504 0.0288085 0.221009 0 0.300781 0H10.9924L13.7425 2.47926V17.2472C13.7425 17.2831 13.7347 17.3187 13.7196 17.3518C13.7045 17.385 13.6824 17.4152 13.6544 17.4405C13.6265 17.4659 13.5933 17.4861 13.5568 17.4998C13.5204 17.5136 13.4812 17.5206 13.4417 17.5206Z" fill="#EAF6FF"/>
<path d="M0.884512 0V17.5207H0.300781C0.221009 17.5207 0.144504 17.4919 0.0880969 17.4406C0.0316895 17.3893 0 17.3197 0 17.2472V0.273438C0 0.200917 0.0316895 0.131367 0.0880969 0.080088C0.144504 0.0288085 0.221009 0 0.300781 0L0.884512 0Z" fill="#D8ECFE"/>
<path d="M10.9922 6.26188C10.9922 7.37512 10.4579 8.375 9.61013 9.0609V9.06129C8.88177 9.6507 7.92249 9.61789 6.8713 9.61789C5.81565 9.61789 4.85289 9.64789 4.12363 9.05406C3.28071 8.36859 2.75 7.37152 2.75 6.26188C2.75 4.19297 4.59508 2.51562 6.8713 2.51562C9.1471 2.51562 10.9922 4.19293 10.9922 6.26188Z" fill="#365E7D"/>
<path d="M9.61151 7.57969V9.06082C8.88315 9.65023 7.92387 10.008 6.87268 10.008C5.81702 10.008 4.85427 9.64742 4.125 9.05359V7.57969C4.125 7.3268 4.31651 7.10246 4.60088 7.02043L6.12043 6.67188H7.61655L9.13567 7.02043C9.42004 7.10246 9.61151 7.3268 9.61151 7.57969Z" fill="#9BD8F9"/>
<path d="M7.31405 9.98672C7.16899 10.0008 7.02174 10.008 6.87268 10.008C5.81702 10.008 4.85427 9.64742 4.125 9.05359V7.57969C4.125 7.3268 4.31651 7.10246 4.60088 7.02043L6.12043 6.67188H7.00494L5.48539 7.02043C5.20102 7.10246 5.00951 7.3268 5.00951 7.57969V9.05359C5.63527 9.56297 6.43307 9.90109 7.31405 9.98672Z" fill="#73C3F9"/>
<path d="M11.2974 2.51203L13.7423 2.47926L10.9922 0V2.23863C10.9922 2.27488 11.0001 2.31077 11.0155 2.34421C11.0309 2.37765 11.0535 2.40797 11.0819 2.43341C11.1103 2.45885 11.144 2.4789 11.181 2.4924C11.218 2.5059 11.2576 2.51257 11.2974 2.51203Z" fill="#D8ECFE"/>
<path d="M6.18257 11.5601H2.74825C2.66121 11.5588 2.57821 11.5265 2.51715 11.4701C2.4561 11.4137 2.42188 11.3377 2.42188 11.2586C2.42188 11.1794 2.4561 11.1034 2.51715 11.047C2.57821 10.9906 2.66121 10.9583 2.74825 10.957H6.18257C6.36579 10.957 6.51425 11.092 6.51425 11.2586C6.51425 11.4251 6.36579 11.5601 6.18257 11.5601ZM10.9906 11.5601H7.55633C7.46929 11.5588 7.38629 11.5265 7.32523 11.4701C7.26417 11.4137 7.22995 11.3377 7.22995 11.2586C7.22995 11.1794 7.26417 11.1034 7.32523 11.047C7.38629 10.9906 7.46929 10.9583 7.55633 10.957H10.9906C11.1738 10.957 11.3223 11.092 11.3223 11.2586C11.3223 11.4251 11.1738 11.5601 10.9906 11.5601ZM6.18257 12.8186H2.74825C2.66121 12.8173 2.57821 12.785 2.51715 12.7286C2.4561 12.6722 2.42188 12.5962 2.42188 12.5171C2.42188 12.4379 2.4561 12.362 2.51715 12.3056C2.57821 12.2491 2.66121 12.2168 2.74825 12.2155H6.18257C6.36579 12.2155 6.51425 12.3505 6.51425 12.5171C6.51425 12.6836 6.36579 12.8186 6.18257 12.8186ZM10.9906 12.8186H7.55633C7.46929 12.8173 7.38629 12.785 7.32523 12.7286C7.26417 12.6722 7.22995 12.5962 7.22995 12.5171C7.22995 12.4379 7.26417 12.362 7.32523 12.3056C7.38629 12.2491 7.46929 12.2168 7.55633 12.2155H10.9906C11.1738 12.2155 11.3223 12.3505 11.3223 12.5171C11.3223 12.6836 11.1738 12.8186 10.9906 12.8186ZM6.18257 14.0578H2.74825C2.66121 14.0565 2.57821 14.0242 2.51715 13.9678C2.4561 13.9114 2.42188 13.8354 2.42188 13.7562C2.42188 13.6771 2.4561 13.6011 2.51715 13.5447C2.57821 13.4883 2.66121 13.456 2.74825 13.4547H6.18257C6.36579 13.4547 6.51425 13.5897 6.51425 13.7562C6.51425 13.9228 6.36579 14.0578 6.18257 14.0578ZM10.9906 14.0578H7.55633C7.46929 14.0565 7.38629 14.0242 7.32523 13.9678C7.26417 13.9114 7.22995 13.8354 7.22995 13.7562C7.22995 13.6771 7.26417 13.6011 7.32523 13.5447C7.38629 13.4883 7.46929 13.456 7.55633 13.4547H10.9906C11.1738 13.4547 11.3223 13.5897 11.3223 13.7562C11.3223 13.9228 11.1738 14.0578 10.9906 14.0578ZM6.18257 15.297H2.74825C2.66121 15.2957 2.57821 15.2634 2.51715 15.2069C2.4561 15.1505 2.42188 15.0746 2.42188 14.9954C2.42188 14.9163 2.4561 14.8403 2.51715 14.7839C2.57821 14.7275 2.66121 14.6952 2.74825 14.6939H6.18257C6.36579 14.6939 6.51425 14.8289 6.51425 14.9954C6.51425 15.162 6.36579 15.297 6.18257 15.297ZM10.9906 15.297H7.55633C7.46929 15.2957 7.38629 15.2634 7.32523 15.2069C7.26417 15.1505 7.22995 15.0746 7.22995 14.9954C7.22995 14.9163 7.26417 14.8403 7.32523 14.7839C7.38629 14.7275 7.46929 14.6952 7.55633 14.6939H10.9906C11.1738 14.6939 11.3223 14.8289 11.3223 14.9954C11.3223 15.162 11.1738 15.297 10.9906 15.297Z" fill="#365E7D"/>
<path d="M5.49609 5.20121V5.62887C5.49609 6.31387 6.11115 6.86914 6.8698 6.86914C7.6285 6.86914 8.24352 6.31387 8.24352 5.62887V5.20121C8.24352 4.51621 7.62846 3.96094 6.8698 3.96094C6.11111 3.96094 5.49609 4.51621 5.49609 5.20121Z" fill="#FFCEBF"/>
<path d="M7.31238 6.8034C7.16988 6.84701 7.0205 6.86915 6.87015 6.86895C6.11123 6.86895 5.49609 6.31371 5.49609 5.62864V5.20125C5.49609 4.85871 5.65001 4.54875 5.89854 4.32399C6.15677 4.09082 6.50618 3.96026 6.87015 3.96094C7.02492 3.96094 7.17355 3.98387 7.31238 4.02649C7.11323 4.08757 6.93213 4.18934 6.78301 4.32399C6.53448 4.54871 6.38056 4.85871 6.38056 5.20125V5.62864C6.38056 6.17422 6.77063 6.63739 7.31238 6.8034Z" fill="#FFB09E"/>
</svg>
